<?xml version="1.0" encoding="UTF-8"?>
<svg width="80px" height="23px" viewBox="0 0 80 23" version="1.1" xmlns="http://www.w3.org/2000/svg" xmlns:xlink="http://www.w3.org/1999/xlink">
    <!-- Generator: Sketch 52.2 (67145) - http://www.bohemiancoding.com/sketch -->
    <title>freshjobs-logo-type</title>
    <desc>Created with Sketch.</desc>
    <g id="freshjobs-logo-type" stroke="none" stroke-width="1" fill="none" fill-rule="evenodd">
        <g transform="translate(0.000000, -0.000000)" fill="#FFFFFF">
            <path d="M72.9555556,10.0644444 C73.1511111,10.0644444 73.3333333,10.1193333 73.5035556,10.2297778 C73.6735556,10.34 73.8217778,10.4746667 73.9484444,10.6342222 C74.0751111,10.7931111 74.1744444,10.9631111 74.2466667,11.1437778 C74.3191111,11.3246667 74.3555556,11.4837778 74.3555556,11.6215556 C74.3555556,11.7371111 74.3426667,11.8464444 74.3173333,11.9495556 C74.292,12.0526667 74.2551111,12.1528889 74.2062222,12.2506667 C74.1573333,12.3484444 74.0973333,12.4451111 74.0271111,12.5408889 C73.9564444,12.6364444 73.8742222,12.7371111 73.7804444,12.842 C73.8235556,13.0877778 73.8995556,13.312 74.008,13.5144444 C74.1164444,13.7171111 74.2395556,13.8906667 74.3768889,14.0353333 C74.5146667,14.1797778 74.6582222,14.2922222 74.808,14.3717778 C74.9584444,14.4513333 75.0968889,14.4911111 75.2235556,14.4911111 C75.2775556,14.4911111 75.3324444,14.4822222 75.3888889,14.4644444 C75.4448889,14.446 75.4955556,14.4162222 75.5406667,14.3746667 C75.586,14.3331111 75.622,14.2797778 75.6491111,14.2146667 C75.6764444,14.1495556 75.69,14.0702222 75.69,13.976 C75.69,13.7877778 75.6584444,13.56 75.5951111,13.2922222 C75.5317778,13.0246667 75.4522222,12.7371111 75.3564444,12.43 C75.2608889,12.1222222 75.1564444,11.8022222 75.0444444,11.4693333 C74.9322222,11.1366667 74.8282222,10.8093333 74.7322222,10.4871111 C74.6366667,10.1655556 74.5566667,9.85822222 74.4935556,9.56488889 C74.4304444,9.27222222 74.3988889,9.01 74.3988889,8.77822222 C74.3988889,8.31155556 74.4884444,7.88488889 74.6673333,7.49822222 C74.8464444,7.11111111 75.0933333,6.77822222 75.408,6.49977778 C75.7226667,6.22111111 76.096,6.00488889 76.528,5.85133333 C76.9604444,5.69755556 77.4297778,5.62066667 77.9362222,5.62066667 C78.58,5.62066667 79.0806667,5.758 79.4391111,6.03288889 C79.7968889,6.30755556 79.9762222,6.71066667 79.9762222,7.24266667 C79.9762222,7.47777778 79.9317778,7.70266667 79.8428889,7.91822222 C79.7546667,8.13333333 79.6433333,8.30777778 79.5095556,8.44155556 C79.0828889,8.26422222 78.6902222,8.17555556 78.3322222,8.17555556 C78.0971111,8.17555556 77.92,8.21444444 77.8006667,8.29222222 C77.6811111,8.37 77.6215556,8.51 77.6215556,8.71266667 C77.6215556,8.87933333 77.6531111,9.06711111 77.7164444,9.27711111 C77.7797778,9.48666667 77.8586667,9.71177778 77.9524444,9.95266667 C78.0464444,10.1926667 78.148,10.446 78.2562222,10.712 C78.3651111,10.9777778 78.466,11.248 78.5602222,11.5231111 C78.6542222,11.7977778 78.7328889,12.0746667 78.7962222,12.3531111 C78.8593333,12.6315556 78.8911111,12.9064444 78.8911111,13.1775556 C78.8911111,13.6264444 78.8311111,14.0295556 78.7117778,14.3875556 C78.5924444,14.7453333 78.4295556,15.0631111 78.2235556,15.3397778 C78.0173333,15.6164444 77.7751111,15.8542222 77.4964444,16.0531111 C77.218,16.252 76.9195556,16.4148889 76.6013333,16.5413333 C76.2831111,16.668 75.9531111,16.7608889 75.6111111,16.8206667 C75.2693333,16.8802222 74.9322222,16.9102222 74.5993333,16.9102222 C74.1653333,16.9102222 73.7611111,16.8377778 73.3868889,16.6931111 C73.0126667,16.5486667 72.6862222,16.3331111 72.4077778,16.0475556 C72.1293333,15.7617778 71.9104444,15.4082222 71.7513333,14.9868889 C71.5922222,14.5655556 71.5126667,14.0802222 71.5126667,13.5302222 C71.5126667,13.3131111 71.5224444,13.0762222 71.5424444,12.8191111 C71.5624444,12.5626667 71.5957778,12.3057778 71.6428889,12.0491111 C71.6895556,11.7922222 71.7504444,11.5446667 71.8244444,11.3057778 C71.8984444,11.0671111 71.9888889,10.8555556 72.0955556,10.6708889 C72.2022222,10.4864444 72.3271111,10.3391111 72.47,10.2286667 C72.6128889,10.1184444 72.7744444,10.0633333 72.9555556,10.0633333 L72.9555556,10.0644444 Z M71.8466667,8.82177778 C71.8466667,9.24844444 71.8031111,9.68888889 71.7164444,10.1428889 C71.6297778,10.5968889 71.5066667,11.0495556 71.3475556,11.502 C71.1882222,11.9537778 70.9964444,12.3968889 70.7724444,12.8308889 C70.548,13.2648889 70.2995556,13.6753333 70.0264444,14.0624444 C69.7531111,14.4495556 69.4591111,14.8057778 69.1442222,15.1313333 C68.8297778,15.4568889 68.5015556,15.738 68.1597778,15.9748889 C67.818,16.2117778 67.4671111,16.3971111 67.1073333,16.5311111 C66.7473333,16.6651111 66.3851111,16.732 66.0195556,16.732 C65.5706667,16.732 65.1746667,16.6533333 64.8311111,16.496 C64.4875556,16.3386667 64.2,16.096 63.9684444,15.7688889 C63.7373333,15.4415556 63.5624444,15.0231111 63.4448889,14.5133333 C63.3271111,14.0031111 63.2686667,13.3955556 63.2686667,12.69 C63.2686667,11.9993333 63.3113333,11.2922222 63.3964444,10.5688889 C63.4813333,9.84533333 63.6015556,9.12555556 63.7571111,8.40955556 C63.9126667,7.69333333 64.0997778,6.99355556 64.3186667,6.31 C64.5375556,5.62622222 64.7797778,4.97888889 65.0457778,4.36777778 C65.3115556,3.75666667 65.5982222,3.19488889 65.9057778,2.68333333 C66.2131111,2.17133333 66.5331111,1.73 66.8657778,1.35933333 C67.1986667,0.988222222 67.5413333,0.699333333 67.894,0.491111111 C68.2466667,0.283333333 68.6002222,0.179333333 68.9546667,0.179333333 C69.1791111,0.179333333 69.3795556,0.208222222 69.5568889,0.266 C69.734,0.323777778 69.8851111,0.413555556 70.0097778,0.534888889 C70.1346667,0.655777778 70.2304444,0.811333333 70.2973333,1.00111111 C70.364,1.19111111 70.3973333,1.41977778 70.3973333,1.68777778 C70.3973333,1.83577778 70.374,2.00777778 70.3271111,2.20288889 C70.28,2.39844444 70.2013333,2.626 70.0911111,2.88644444 C69.9806667,3.14644444 69.8368889,3.44244444 69.66,3.77311111 C69.4822222,4.10422222 69.2635556,4.48133333 69.0033333,4.90422222 C68.7428889,5.32777778 68.438,5.79888889 68.0891111,6.31755556 C67.7402222,6.83688889 67.3395556,7.41311111 66.8873333,8.04577778 C66.8331111,8.38933333 66.7824444,8.74466667 66.7355556,9.11177778 C66.6884444,9.47888889 66.6488889,9.83333333 66.616,10.1753333 C66.5835556,10.5171111 66.5582222,10.8344444 66.5404444,11.1273333 C66.522,11.4206667 66.5131111,11.6662222 66.5131111,11.8651111 C66.5131111,12.35 66.5204444,12.7395556 66.5348889,13.0344444 C66.5493333,13.3291111 66.5711111,13.5562222 66.6,13.7153333 C66.6288889,13.8744444 66.668,13.9802222 66.7168889,14.0326667 C66.7657778,14.0851111 66.8226667,14.1113333 66.888,14.1113333 C67.0253333,14.1113333 67.1708889,14.058 67.3244444,13.9513333 C67.4782222,13.8446667 67.6311111,13.7008889 67.7828889,13.5202222 C67.9348889,13.3391111 68.0806667,13.1302222 68.2197778,12.8935556 C68.3586667,12.6564444 68.4808889,12.4068889 68.5857778,12.1446667 C68.6906667,11.8824444 68.7746667,11.6166667 68.838,11.3468889 C68.9013333,11.0775556 68.9328889,10.8217778 68.9328889,10.5793333 C68.9328889,10.366 68.9173333,10.1851111 68.8866667,10.0371111 C68.8555556,9.88866667 68.8015556,9.76111111 68.7237778,9.65444444 C68.646,9.54777778 68.5408889,9.45733333 68.4088889,9.38333333 C68.2768889,9.30888889 68.1115556,9.24111111 67.9124444,9.17977778 C67.8868889,9.07844444 67.8688889,8.98644444 67.858,8.90288889 C67.8468889,8.81977778 67.8417778,8.73288889 67.8417778,8.64288889 C67.8417778,8.35311111 67.9017778,8.074 68.0208889,7.80444444 C68.1402222,7.53511111 68.3002222,7.29644444 68.5008889,7.08844444 C68.7017778,6.88044444 68.9357778,6.714 69.2035556,6.58933333 C69.4711111,6.46444444 69.7515556,6.40222222 70.0444444,6.40222222 C70.6448889,6.40222222 71.0951111,6.59466667 71.3955556,6.98 C71.6955556,7.36511111 71.8457778,7.97911111 71.8457778,8.82177778 L71.8466667,8.82177778 Z" id="Shape"></path>
            <path d="M61.1348889,6.75466667 C61.3628889,6.75466667 61.5615556,6.79177778 61.7317778,6.86577778 C61.9017778,6.94022222 62.0428889,7.04311111 62.1548889,7.17533333 C62.2671111,7.30711111 62.3511111,7.46422222 62.4073333,7.64711111 C62.4633333,7.82977778 62.4913333,8.02933333 62.4913333,8.24644444 C62.4913333,8.42377778 62.4788889,8.61822222 62.4535556,8.82977778 C62.4282222,9.04133333 62.392,9.26311111 62.3451111,9.49422222 C62.298,9.72577778 62.2437778,9.96355556 62.1822222,10.2075556 C62.1206667,10.452 62.0537778,10.6942222 61.9813333,10.9348889 C61.9088889,11.1753333 61.8331111,11.4104444 61.7535556,11.64 C61.6742222,11.87 61.5926667,12.086 61.5095556,12.2888889 C61.5457778,12.3211111 61.6006667,12.3555556 61.6751111,12.3917778 C61.7491111,12.4277778 61.8422222,12.446 61.9544444,12.446 C62.2766667,12.446 62.6026667,12.3113333 62.9337778,12.0415556 C63.2648889,11.7722222 63.6131111,11.3428889 63.9782222,10.7533333 C64.0795556,10.7533333 64.1817778,10.7733333 64.2848889,10.8128889 C64.388,10.8528889 64.4811111,10.9077778 64.5642222,10.9784444 C64.6473333,11.0488889 64.7153333,11.134 64.7677778,11.2333333 C64.8202222,11.3328889 64.8464444,11.4404444 64.8464444,11.5562222 C64.8464444,11.7117778 64.8064444,11.8944444 64.7271111,12.1042222 C64.6471111,12.3137778 64.5353333,12.5308889 64.3906667,12.7548889 C64.2462222,12.9793333 64.0706667,13.1997778 63.8644444,13.4171111 C63.6582222,13.634 63.4304444,13.8282222 63.1808889,14 C62.9311111,14.1722222 62.6617778,14.3111111 62.3724444,14.4177778 C62.0831111,14.5244444 61.7813333,14.5782222 61.4664444,14.5782222 C61.2637778,14.5782222 61.0953333,14.5608889 60.962,14.5266667 C60.828,14.4922222 60.6997778,14.4355556 60.5766667,14.3555556 C60.3126667,14.7173333 60.0388889,15.0377778 59.7544444,15.316 C59.4706667,15.5944444 59.1733333,15.8286667 58.8622222,16.0182222 C58.5511111,16.2084444 58.2237778,16.3531111 57.88,16.4526667 C57.5366667,16.552 57.1695556,16.6015556 56.7788889,16.6015556 C56.3846667,16.6015556 56.0157778,16.5357778 55.6722222,16.4037778 C55.3284444,16.2717778 55.03,16.0726667 54.7766667,15.8068889 C54.5237778,15.5413333 54.324,15.2057778 54.1773333,14.8008889 C54.0306667,14.3957778 53.9577778,13.9217778 53.9577778,13.3793333 C53.9577778,12.7644444 54.0208889,12.1648889 54.1475556,11.5808889 C54.2742222,10.9964444 54.4475556,10.446 54.6684444,9.92888889 C54.8891111,9.41111111 55.1506667,8.93777778 55.4524444,8.50711111 C55.7546667,8.07666667 56.0808889,7.70488889 56.4315556,7.39222222 C56.7826667,7.07933333 57.1522222,6.83622222 57.5411111,6.66244444 C57.93,6.48911111 58.3197778,6.40244444 58.71,6.40244444 C58.8548889,6.40244444 59.0042222,6.41866667 59.1577778,6.45133333 C59.3115556,6.48377778 59.4517778,6.538 59.5784444,6.614 C59.7051111,6.69 59.81,6.79022222 59.8933333,6.91511111 C59.9764444,7.03955556 60.02,7.19444444 60.0235556,7.37888889 C60.1791111,7.18711111 60.3497778,7.03533333 60.5362222,6.92333333 C60.7224444,6.81111111 60.9222222,6.75488889 61.1355556,6.75488889 L61.1348889,6.75466667 Z M57.1093333,12.5546667 C57.1093333,12.8257778 57.132,13.0517778 57.1771111,13.2324444 C57.2224444,13.4135556 57.2828889,13.5573333 57.3588889,13.664 C57.4348889,13.7706667 57.5211111,13.8457778 57.6166667,13.8891111 C57.7122222,13.9326667 57.8111111,13.9544444 57.9122222,13.9544444 C58.0462222,13.9544444 58.1735556,13.93 58.2948889,13.8811111 C58.416,13.8322222 58.5308889,13.7664444 58.6393333,13.6833333 C58.7477778,13.6 58.8491111,13.5033333 58.9431111,13.3928889 C59.0371111,13.2826667 59.1222222,13.1662222 59.1982222,13.0428889 C59.1366667,12.9162222 59.0842222,12.7708889 59.0408889,12.6062222 C58.9973333,12.4417778 58.9613333,12.2688889 58.932,12.0884444 C58.9031111,11.9073333 58.8815556,11.724 58.8671111,11.5373333 C58.8526667,11.3511111 58.8455556,11.1713333 58.8455556,10.9973333 C58.8455556,10.7806667 58.8617778,10.5484444 58.8944444,10.3004444 C58.9268889,10.0528889 58.9748889,9.80044444 59.038,9.54377778 C59.1015556,9.28711111 59.1784444,9.032 59.2691111,8.77888889 C59.3593333,8.52555556 59.4624444,8.28888889 59.578,8.06822222 C59.3502222,8.17666667 59.1304444,8.32044444 58.9188889,8.49933333 C58.7073333,8.67844444 58.51,8.88377778 58.3277778,9.11533333 C58.1448889,9.34644444 57.9788889,9.59911111 57.8284444,9.872 C57.6784444,10.1453333 57.55,10.4297778 57.4433333,10.7266667 C57.3366667,11.0231111 57.2544444,11.326 57.1966667,11.6355556 C57.1384444,11.9444444 57.1095556,12.2511111 57.1095556,12.5548889 L57.1093333,12.5546667 Z" id="Shape"></path>
            <path d="M51.2884444,16.3088889 L51.2233333,16.8377778 C51.2015556,17.0133333 51.18,17.1813333 51.1582222,17.3422222 L51.0982222,17.79 C51.0804444,17.9273333 51.0626667,18.0484444 51.0442222,18.1533333 C50.9426667,18.9022222 50.7602222,19.5511111 50.496,20.1011111 C50.232,20.6508889 49.9173333,21.1055556 49.552,21.4655556 C49.1866667,21.8255556 48.7871111,22.0931111 48.3531111,22.2684444 C47.9191111,22.444 47.4831111,22.5317778 47.0455556,22.5317778 C46.6404444,22.5317778 46.2722222,22.4593333 45.9415556,22.3146667 C45.6104444,22.1702222 45.3275556,21.9657778 45.0926667,21.7013333 C44.8571111,21.4375556 44.6755556,21.1235556 44.5471111,20.7602222 C44.4188889,20.3971111 44.3546667,19.9946667 44.3546667,19.5535556 C44.3546667,19.3002222 44.3817778,19.0695556 44.436,18.8615556 C44.4902222,18.6537778 44.5951111,18.4466667 44.7506667,18.2404444 C44.9062222,18.0344444 45.124,17.8193333 45.404,17.5951111 C45.6844444,17.3706667 46.0524444,17.114 46.5084444,16.8246667 L48.2877778,15.6904444 C48.3166667,15.3793333 48.35,15.0466667 48.3882222,14.6922222 C48.426,14.3377778 48.4675556,13.9824444 48.5126667,13.6262222 C48.558,13.27 48.6066667,12.9235556 48.6593333,12.5873333 C48.7115556,12.2508889 48.7648889,11.9433333 48.8193333,11.6651111 C48.7326667,11.4551111 48.6735556,11.2291111 48.6428889,10.9866667 C48.6122222,10.7444444 48.5966667,10.5111111 48.5966667,10.2866667 C48.5966667,10.0695556 48.6544444,9.82444444 48.7704444,9.55155556 C48.886,9.27822222 49.0397778,9.00177778 49.2315556,8.72155556 C49.4233333,8.44111111 49.6437778,8.16711111 49.8933333,7.89933333 C50.1428889,7.63177778 50.4015556,7.39311111 50.6693333,7.18333333 C50.9368889,6.97355556 51.2044444,6.80555556 51.4722222,6.67888889 C51.7397778,6.55222222 51.9893333,6.48888889 52.2211111,6.48888889 C52.4344444,6.48888889 52.6106667,6.50977778 52.75,6.55111111 C52.8891111,6.59288889 53.0004444,6.65711111 53.0833333,6.744 C53.1666667,6.83066667 53.2255556,6.93955556 53.2597778,7.06955556 C53.2942222,7.19955556 53.3113333,7.35511111 53.3113333,7.53622222 C53.3113333,7.858 53.218,8.28022222 53.032,8.80288889 C52.8457778,9.32555556 52.5464444,9.93955556 52.1342222,10.6446667 C52.0942222,10.8291111 52.0497778,11.0464444 52.0008889,11.2957778 C51.9524444,11.5455556 51.9026667,11.8151111 51.852,12.1046667 C51.8013333,12.3935556 51.7497778,12.6948889 51.6973333,13.0077778 C51.6451111,13.3206667 51.5973333,13.6288889 51.5537778,13.9326667 C51.8106667,13.7664444 52.0693333,13.582 52.3293333,13.3793333 C52.59,13.1771111 52.8522222,12.9497778 53.116,12.6984444 C53.3804444,12.4473333 53.6453333,12.1686667 53.9111111,11.8628889 C54.1768889,11.5573333 54.4437778,11.2184444 54.7111111,10.8457778 C54.8162222,10.8457778 54.9211111,10.8691111 55.026,10.9162222 C55.1304444,10.9633333 55.2237778,11.0255556 55.3051111,11.1033333 C55.3866667,11.1811111 55.4526667,11.2706667 55.5033333,11.3722222 C55.5537778,11.4733333 55.5788889,11.5782222 55.5788889,11.6866667 C55.5788889,11.8673333 55.5188889,12.0777778 55.3975556,12.3184444 C55.2762222,12.5588889 55.1108889,12.8157778 54.9011111,13.0888889 C54.6913333,13.3622222 54.4462222,13.6431111 54.166,13.9324444 C53.8855556,14.2217778 53.5871111,14.5075556 53.2704444,14.7897778 C52.9542222,15.072 52.626,15.3431111 52.286,15.6035556 C51.946,15.864 51.6133333,16.0991111 51.2877778,16.3088889 L51.2884444,16.3088889 Z M47.4202222,18.224 C47.3082222,18.2962222 47.2135556,18.364 47.1357778,18.4273333 C47.058,18.4906667 46.9944444,18.554 46.9455556,18.6173333 C46.8966667,18.6806667 46.8606667,18.7466667 46.8371111,18.8151111 C46.8135556,18.884 46.8015556,18.96 46.8015556,19.0431111 C46.8015556,19.206 46.8215556,19.3524444 46.8615556,19.4826667 C46.9015556,19.6128889 46.9555556,19.7248889 47.0242222,19.8191111 C47.0931111,19.9131111 47.1744444,19.9853333 47.2686667,20.036 C47.3624444,20.0866667 47.4655556,20.112 47.5775556,20.112 C47.7442222,20.112 47.8615556,20.0424444 47.9304444,19.9031111 C47.9993333,19.7637778 48.0442222,19.5368889 48.066,19.2222222 C48.0837778,19.016 48.1004444,18.8206667 48.1148889,18.6362222 C48.1293333,18.4517778 48.1437778,18.2891111 48.1582222,18.148 C48.1728889,17.9813333 48.1871111,17.828 48.2017778,17.6868889 L47.4206667,18.2242222 L47.4202222,18.224 Z M51.7551111,2.46844444 C51.7551111,2.03466667 51.7733333,1.67955556 51.8095556,1.40266667 C51.8455556,1.126 51.9006667,0.908 51.9748889,0.748888889 C52.0491111,0.589777778 52.1415556,0.480444444 52.2515556,0.420666667 C52.3622222,0.361111111 52.4933333,0.331111111 52.6448889,0.331111111 C52.8693333,0.331111111 53.0915556,0.386222222 53.3124444,0.496666667 C53.5331111,0.606888889 53.7328889,0.744444444 53.912,0.908888889 C54.0911111,1.07333333 54.2357778,1.25333333 54.346,1.44888889 C54.4564444,1.644 54.5115556,1.82888889 54.5115556,2.00222222 C54.5115556,2.136 54.4971111,2.28977778 54.468,2.46333333 C54.4391111,2.63666667 54.3795556,2.834 54.2891111,3.05444444 C54.1984444,3.27533333 54.0726667,3.52111111 53.9117778,3.79222222 C53.7508889,4.06377778 53.5362222,4.36222222 53.2688889,4.68777778 C53.0082222,4.68777778 52.7822222,4.63155556 52.5904444,4.51955556 C52.3988889,4.40733333 52.2415556,4.25177778 52.1184444,4.05288889 C51.9955556,3.854 51.9042222,3.61888889 51.8444444,3.34755556 C51.7848889,3.07644444 51.7548889,2.78311111 51.7548889,2.46866667 L51.7551111,2.46844444 Z" id="Shape"></path>
            <path d="M38.4457778,11.8004444 C38.5902222,10.4475556 38.7386667,9.22155556 38.8906667,8.122 C39.0424444,7.022 39.2106667,6.042 39.3951111,5.18111111 C39.5795556,4.32044444 39.7857778,3.57622222 40.0137778,2.94866667 C40.2415556,2.32111111 40.5026667,1.802 40.7975556,1.39155556 C41.0922222,0.981111111 41.4257778,0.676444444 41.7984444,0.477333333 C42.1708889,0.278222222 42.594,0.178888889 43.068,0.178888889 C43.3066667,0.178888889 43.5164444,0.207777778 43.6973333,0.265555556 C43.8777778,0.323333333 44.028,0.415777778 44.1473333,0.542222222 C44.2666667,0.668888889 44.3571111,0.832666667 44.4184444,1.03333333 C44.48,1.234 44.5108889,1.47555556 44.5108889,1.75777778 C44.5108889,2 44.4766667,2.26933333 44.408,2.566 C44.3391111,2.86222222 44.22,3.21133333 44.0502222,3.61266667 C43.88,4.01422222 43.652,4.48155556 43.3662222,5.01533333 C43.0804444,5.54866667 42.7204444,6.17355556 42.2862222,6.88977778 L41.7546667,8.97866667 C42.5613333,8.24088889 43.2946667,7.69266667 43.9546667,7.33466667 C44.6146667,6.97622222 45.1635556,6.79733333 45.6013333,6.79733333 C45.8111111,6.79733333 45.9964444,6.82888889 46.1573333,6.89222222 C46.3184444,6.95533333 46.4528889,7.04488889 46.5617778,7.16066667 C46.6702222,7.27622222 46.7515556,7.41466667 46.8057778,7.57555556 C46.86,7.73666667 46.8871111,7.91466667 46.8871111,8.11 C46.8871111,8.45355556 46.8404444,8.80444444 46.746,9.16244444 C46.6517778,9.52066667 46.5215556,9.91133333 46.3553333,10.3344444 C46.2937778,10.4971111 46.2231111,10.6797778 46.1435556,10.8824444 C46.0635556,11.0846667 45.9824444,11.2935556 45.8991111,11.5091111 C45.816,11.7242222 45.7355556,11.9402222 45.6577778,12.1573333 C45.58,12.3742222 45.5104444,12.5795556 45.4488889,12.7728889 C45.3875556,12.9666667 45.3377778,13.1402222 45.3,13.294 C45.2617778,13.4473333 45.2428889,13.5717778 45.2428889,13.6655556 C45.2428889,13.7884444 45.27,13.8744444 45.3242222,13.9233333 C45.3784444,13.9722222 45.4544444,13.9966667 45.552,13.9966667 C45.6533333,13.9966667 45.8106667,13.9295556 46.024,13.7957778 C46.2373333,13.662 46.488,13.462 46.7755556,13.1962222 C47.0631111,12.9304444 47.3777778,12.6013333 47.7195556,12.2088889 C48.0613333,11.8164444 48.4128889,11.3615556 48.7746667,10.8444444 C48.8795556,10.8444444 48.9844444,10.8615556 49.0893333,10.896 C49.1942222,10.9302222 49.2871111,10.9791111 49.3688889,11.0426667 C49.4502222,11.1057778 49.5162222,11.1826667 49.5666667,11.2728889 C49.6177778,11.3633333 49.6426667,11.4646667 49.6426667,11.5768889 C49.6426667,11.7506667 49.5875556,11.9604444 49.4773333,12.2064444 C49.3668889,12.4522222 49.2151111,12.7153333 49.0217778,12.9957778 C48.828,13.2757778 48.6011111,13.5662222 48.3406667,13.8664444 C48.0802222,14.1664444 47.8,14.4606667 47.4997778,14.7482222 C47.1997778,15.036 46.8864444,15.3071111 46.5611111,15.5622222 C46.2353333,15.8171111 45.9126667,16.0413333 45.5922222,16.2348889 C45.2722222,16.4282222 44.9611111,16.5822222 44.6593333,16.696 C44.3571111,16.81 44.078,16.8671111 43.8211111,16.8671111 C43.4922222,16.8671111 43.2153333,16.8308889 42.9911111,16.7582222 C42.7666667,16.686 42.586,16.5748889 42.4484444,16.4248889 C42.3111111,16.2746667 42.2124444,16.0866667 42.1528889,15.8604444 C42.0928889,15.6344444 42.0633333,15.3693333 42.0633333,15.0657778 C42.0633333,14.8195556 42.0922222,14.5491111 42.15,14.2546667 C42.2077778,13.9595556 42.2795556,13.6595556 42.3644444,13.3537778 C42.4495556,13.0482222 42.5417778,12.7453333 42.6411111,12.4448889 C42.7406667,12.1448889 42.8328889,11.8693333 42.9177778,11.6177778 C43.0028889,11.3666667 43.0742222,11.1466667 43.1322222,10.9584444 C43.19,10.7704444 43.2188889,10.6366667 43.2188889,10.5571111 C43.2188889,10.4668889 43.1982222,10.3846667 43.1566667,10.3104444 C43.1148889,10.2362222 43.0326667,10.1993333 42.91,10.1993333 C42.718,10.1993333 42.4937778,10.2606667 42.2366667,10.3837778 C41.9802222,10.5066667 41.7015556,10.6964444 41.4015556,10.9533333 C41.3471111,11.3475556 41.2966667,11.7488889 41.2495556,12.1577778 C41.2024444,12.5666667 41.1606667,12.9888889 41.1246667,13.4244444 C41.0886667,13.8604444 41.0606667,14.3133333 41.0406667,14.7835556 C41.0206667,15.2535556 41.0073333,15.7473333 41,16.2644444 C40.8986667,16.3766667 40.7584444,16.4571111 40.5795556,16.506 C40.4004444,16.5548889 40.1988889,16.5793333 39.9746667,16.5793333 C39.7613333,16.5793333 39.5568889,16.5486667 39.3617778,16.4871111 C39.1662222,16.4257778 38.9855556,16.3397778 38.8191111,16.2293333 C38.6528889,16.1191111 38.5026667,15.9897778 38.3688889,15.8415556 C38.2351111,15.6933333 38.12,15.5333333 38.0244444,15.3615556 C37.9284444,15.1895556 37.8533333,15.0077778 37.7993333,14.8162222 C37.7451111,14.6244444 37.7162222,14.4328889 37.7126667,14.2411111 C37.7126667,13.8975556 37.7651111,13.524 37.87,13.1206667 C37.9748889,12.7175556 38.1666667,12.2771111 38.4451111,11.7997778 L38.4457778,11.8004444 Z M30.9555556,10.0644444 C31.1511111,10.0644444 31.3333333,10.1193333 31.5035556,10.2297778 C31.6735556,10.34 31.8217778,10.4746667 31.9484444,10.6342222 C32.0751111,10.7931111 32.1744444,10.9631111 32.2466667,11.1437778 C32.3191111,11.3246667 32.3555556,11.4837778 32.3555556,11.6215556 C32.3555556,11.7371111 32.3426667,11.8464444 32.3173333,11.9495556 C32.292,12.0526667 32.2551111,12.1528889 32.2062222,12.2506667 C32.1573333,12.3484444 32.0973333,12.4451111 32.0271111,12.5408889 C31.9564444,12.6364444 31.8742222,12.7371111 31.7804444,12.842 C31.8235556,13.0877778 31.8995556,13.312 32.008,13.5144444 C32.1164444,13.7171111 32.2395556,13.8906667 32.3768889,14.0353333 C32.5146667,14.1797778 32.6582222,14.2922222 32.808,14.3717778 C32.9584444,14.4513333 33.0968889,14.4911111 33.2235556,14.4911111 C33.2775556,14.4911111 33.3324444,14.4822222 33.3888889,14.4644444 C33.4448889,14.446 33.4955556,14.4162222 33.5406667,14.3746667 C33.586,14.3331111 33.622,14.2797778 33.6491111,14.2146667 C33.6764444,14.1495556 33.69,14.0702222 33.69,13.976 C33.69,13.7877778 33.6584444,13.56 33.5951111,13.2922222 C33.5317778,13.0246667 33.4522222,12.7371111 33.3564444,12.43 C33.2608889,12.1222222 33.1564444,11.8022222 33.0444444,11.4693333 C32.9322222,11.1366667 32.8282222,10.8093333 32.7322222,10.4871111 C32.6366667,10.1655556 32.5566667,9.85822222 32.4935556,9.56488889 C32.4304444,9.27222222 32.3988889,9.01 32.3988889,8.77822222 C32.3988889,8.31155556 32.4884444,7.88488889 32.6673333,7.49822222 C32.8464444,7.11111111 33.0933333,6.77822222 33.408,6.49977778 C33.7226667,6.22111111 34.096,6.00488889 34.528,5.85133333 C34.9604444,5.69755556 35.4297778,5.62066667 35.9362222,5.62066667 C36.58,5.62066667 37.0806667,5.758 37.4391111,6.03288889 C37.7968889,6.30755556 37.9762222,6.71066667 37.9762222,7.24266667 C37.9762222,7.47777778 37.9317778,7.70266667 37.8428889,7.91822222 C37.7546667,8.13333333 37.6433333,8.30777778 37.5095556,8.44155556 C37.0828889,8.26422222 36.6902222,8.17555556 36.3322222,8.17555556 C36.0971111,8.17555556 35.92,8.21444444 35.8006667,8.29222222 C35.6811111,8.37 35.6215556,8.51 35.6215556,8.71266667 C35.6215556,8.87933333 35.6531111,9.06711111 35.7164444,9.27711111 C35.7797778,9.48666667 35.8586667,9.71177778 35.9524444,9.95266667 C36.0464444,10.1926667 36.148,10.446 36.2562222,10.712 C36.3651111,10.9777778 36.466,11.248 36.5602222,11.5231111 C36.6542222,11.7977778 36.7328889,12.0746667 36.7962222,12.3531111 C36.8593333,12.6315556 36.8911111,12.9064444 36.8911111,13.1775556 C36.8911111,13.6264444 36.8311111,14.0295556 36.7117778,14.3875556 C36.5924444,14.7453333 36.4295556,15.0631111 36.2235556,15.3397778 C36.0173333,15.6164444 35.7751111,15.8542222 35.4964444,16.0531111 C35.218,16.252 34.9195556,16.4148889 34.6013333,16.5413333 C34.2831111,16.668 33.9531111,16.7608889 33.6111111,16.8206667 C33.2693333,16.8802222 32.9322222,16.9102222 32.5993333,16.9102222 C32.1653333,16.9102222 31.7611111,16.8377778 31.3868889,16.6931111 C31.0126667,16.5486667 30.6862222,16.3331111 30.4077778,16.0475556 C30.1293333,15.7617778 29.9104444,15.4082222 29.7513333,14.9868889 C29.5922222,14.5655556 29.5126667,14.0802222 29.5126667,13.5302222 C29.5126667,13.3131111 29.5224444,13.0762222 29.5424444,12.8191111 C29.5624444,12.5626667 29.5957778,12.3057778 29.6428889,12.0491111 C29.6895556,11.7922222 29.7504444,11.5446667 29.8244444,11.3057778 C29.8984444,11.0671111 29.9888889,10.8555556 30.0955556,10.6708889 C30.2022222,10.4864444 30.3271111,10.3391111 30.47,10.2286667 C30.6128889,10.1184444 30.7744444,10.0633333 30.9555556,10.0633333 L30.9555556,10.0644444 Z" id="Shape"></path>
            <path d="M26.2222222,9.18 C26.2222222,8.94488889 26.1813333,8.76311111 26.1,8.63466667 C26.0184444,8.50622222 25.9111111,8.442 25.7771111,8.442 C25.7011111,8.442 25.6097778,8.48977778 25.5031111,8.58555556 C25.3964444,8.68155556 25.2906667,8.82555556 25.1857778,9.01666667 C25.0808889,9.20866667 24.9857778,9.44911111 24.9008889,9.73844444 C24.816,10.0277778 24.7535556,10.366 24.7137778,10.7531111 C25.0248889,10.6988889 25.2782222,10.6164444 25.4733333,10.5064444 C25.6688889,10.3957778 25.8222222,10.2702222 25.9344444,10.1291111 C26.0466667,9.988 26.1224444,9.83622222 26.1622222,9.67355556 C26.2022222,9.51066667 26.2222222,9.346 26.2222222,9.17977778 L26.2222222,9.18 Z M24.6215556,16.6451111 C24.0788889,16.6451111 23.6082222,16.562 23.2082222,16.3955556 C22.8082222,16.2293333 22.4775556,15.986 22.2153333,15.666 C21.9531111,15.346 21.7584444,14.9533333 21.632,14.4886667 C21.5053333,14.0235556 21.442,13.4908889 21.442,12.8908889 C21.442,12.33 21.5126667,11.774 21.6535556,11.222 C21.7946667,10.6708889 21.9864444,10.1435556 22.2286667,9.64088889 C22.4708889,9.138 22.754,8.67155556 23.0775556,8.24088889 C23.4015556,7.81066667 23.7442222,7.43733333 24.106,7.12088889 C24.4675556,6.80422222 24.8393333,6.55644444 25.2208889,6.37755556 C25.6024444,6.19844444 25.9742222,6.10866667 26.3357778,6.10866667 C27.1024444,6.10866667 27.6902222,6.296 28.0988889,6.67044444 C28.5077778,7.04488889 28.7122222,7.62088889 28.7122222,8.39844444 C28.7122222,8.86511111 28.6397778,9.30355556 28.4951111,9.714 C28.35,10.1246667 28.114,10.5006667 27.7866667,10.8424444 C27.4593333,11.1846667 27.0326667,11.4864444 26.5066667,11.7486667 C25.98,12.0108889 25.3373333,12.2286667 24.5777778,12.4024444 C24.5777778,12.652 24.5933333,12.8735556 24.6237778,13.0668889 C24.6542222,13.2602222 24.7086667,13.4224444 24.7864444,13.5524444 C24.8642222,13.6826667 24.9726667,13.7822222 25.1117778,13.8508889 C25.2511111,13.9197778 25.4295556,13.954 25.6462222,13.954 C26.0226667,13.954 26.4213333,13.8771111 26.8426667,13.7233333 C27.2642222,13.57 27.6837778,13.3517778 28.1013333,13.0695556 C28.5191111,12.7873333 28.9242222,12.4484444 29.3168889,12.0524444 C29.7091111,11.6564444 30.0626667,11.216 30.3773333,10.7313333 C30.5111111,10.7348889 30.6306667,10.7593333 30.7355556,10.8046667 C30.8404444,10.8497778 30.9288889,10.9057778 31.0013333,10.9726667 C31.0735556,11.0397778 31.1288889,11.1164444 31.1666667,11.2033333 C31.2044444,11.29 31.2237778,11.3766667 31.2237778,11.4637778 C31.2237778,11.67 31.1682222,11.9022222 31.058,12.1608889 C30.9477778,12.4195556 30.794,12.6888889 30.5968889,12.9693333 C30.3995556,13.2493333 30.1653333,13.5353333 29.894,13.8264444 C29.6228889,14.1175556 29.3262222,14.3997778 29.0042222,14.6731111 C28.6824444,14.946 28.3406667,15.202 27.9788889,15.4404444 C27.6171111,15.6793333 27.2477778,15.8882222 26.8722222,16.0671111 C26.4957778,16.2462222 26.1166667,16.3871111 25.7353333,16.4904444 C25.3537778,16.5933333 24.982,16.6448889 24.6204444,16.6448889 L24.6215556,16.6451111 Z" id="Shape"></path>
            <path d="M18.6455556,7.95377778 C18.9711111,8.04777778 19.2366667,8.14 19.4433333,8.23044444 C19.6493333,8.32088889 19.81,8.414 19.926,8.50977778 C20.0415556,8.60577778 20.1204444,8.708 20.162,8.81644444 C20.2033333,8.92488889 20.2242222,9.046 20.2242222,9.18 C20.2242222,9.40444444 20.1691111,9.652 20.0586667,9.92311111 C19.9484444,10.1942222 19.8031111,10.5091111 19.622,10.8671111 C19.4953333,11.1204444 19.3742222,11.376 19.2584444,11.6348889 C19.1428889,11.8935556 19.0415556,12.1404444 18.9546667,12.3753333 C18.868,12.6102222 18.7982222,12.8273333 18.7457778,13.0264444 C18.6933333,13.2251111 18.6671111,13.3931111 18.6671111,13.5308889 C18.6671111,13.69 18.6933333,13.8193333 18.7457778,13.9186667 C18.7982222,14.0182222 18.8986667,14.068 19.0468889,14.068 C19.1517778,14.068 19.2793333,14.0308889 19.4291111,13.9568889 C19.5795556,13.8824444 19.7457778,13.7775556 19.9284444,13.642 C20.1106667,13.5064444 20.3062222,13.342 20.5142222,13.1482222 C20.7222222,12.9548889 20.9328889,12.7386667 21.1462222,12.5 C21.3595556,12.2615556 21.5728889,12.0028889 21.7862222,11.7244444 C21.9995556,11.446 22.204,11.1528889 22.3995556,10.8455556 C22.5368889,10.8455556 22.6635556,10.8655556 22.7795556,10.9051111 C22.8951111,10.9451111 22.9935556,10.9973333 23.0751111,11.0624444 C23.1564444,11.1277778 23.2195556,11.202 23.2648889,11.2851111 C23.31,11.3684444 23.3326667,11.4517778 23.3326667,11.5346667 C23.3326667,11.7084444 23.2764444,11.9191111 23.1642222,12.1668889 C23.0522222,12.4144444 22.8993333,12.6802222 22.7057778,12.9642222 C22.512,13.2482222 22.2842222,13.542 22.022,13.846 C21.7597778,14.1497778 21.4786667,14.4473333 21.1784444,14.7384444 C20.8784444,15.0295556 20.5644444,15.3051111 20.2371111,15.5657778 C19.91,15.8262222 19.5853333,16.054 19.2633333,16.2493333 C18.9415556,16.4448889 18.6295556,16.6004444 18.3277778,16.716 C18.0255556,16.832 17.7462222,16.8897778 17.4893333,16.8897778 C16.8128889,16.8897778 16.2922222,16.7368889 15.9271111,16.4313333 C15.5615556,16.1255556 15.3788889,15.6562222 15.3788889,15.0233333 C15.3788889,14.7773333 15.406,14.5233333 15.4602222,14.2611111 C15.5144444,13.9988889 15.5813333,13.7382222 15.6611111,13.4797778 C15.7406667,13.2211111 15.8273333,12.9686667 15.9211111,12.7228889 C16.0155556,12.4768889 16.1022222,12.2491111 16.1817778,12.0393333 C16.2617778,11.8295556 16.3284444,11.6422222 16.3828889,11.4777778 C16.4371111,11.3128889 16.4642222,11.1835556 16.4642222,11.0895556 C16.4642222,10.9557778 16.4037778,10.8473333 16.2826667,10.764 C16.1615556,10.6808889 15.9782222,10.5884444 15.732,10.4873333 C15.5586667,10.8162222 15.3946667,11.114 15.2408889,11.3797778 C15.0875556,11.6455556 14.9342222,11.8942222 14.7824444,12.1255556 C14.6306667,12.3571111 14.4751111,12.576 14.3157778,12.7822222 C14.1568889,12.9884444 13.9851111,13.1946667 13.8006667,13.4008889 C13.6595556,13.4008889 13.534,13.3773333 13.4235556,13.3302222 C13.3131111,13.2835556 13.22,13.22 13.144,13.1404444 C13.068,13.0608889 13.01,12.9686667 12.9702222,12.8637778 C12.9302222,12.7588889 12.9106667,12.6482222 12.9106667,12.5326667 C12.9106667,12.4424444 12.9224444,12.3504444 12.9457778,12.256 C12.9693333,12.162 13.0102222,12.0771111 13.068,12.0011111 C13.2124444,11.7948889 13.3473333,11.6022222 13.472,11.4233333 C13.5968889,11.2442222 13.7164444,11.0662222 13.8302222,10.8888889 C13.944,10.7115556 14.0517778,10.528 14.1528889,10.3382222 C14.2542222,10.1482222 14.352,9.93955556 14.4462222,9.71155556 C14.3555556,9.61022222 14.2768889,9.48644444 14.21,9.34 C14.1433333,9.19333333 14.1095556,9.01333333 14.1095556,8.8 C14.1095556,8.54 14.1695556,8.26666667 14.2886667,7.98088889 C14.4082222,7.69511111 14.5655556,7.41311111 14.7608889,7.13422222 C14.9564444,6.856 15.1795556,6.59111111 15.4308889,6.33977778 C15.682,6.08822222 15.9408889,5.86644444 16.2064444,5.67488889 C16.4724444,5.48311111 16.7337778,5.33044444 16.9908889,5.21644444 C17.2475556,5.10244444 17.4806667,5.04533333 17.6904444,5.04533333 C17.8786667,5.04533333 18.0504444,5.06755556 18.206,5.11066667 C18.3615556,5.15377778 18.4944444,5.21622222 18.6046667,5.29733333 C18.7151111,5.37911111 18.8008889,5.47844444 18.8624444,5.596 C18.924,5.71377778 18.9546667,5.84822222 18.9546667,6.00044444 C18.9546667,6.15933333 18.9328889,6.30755556 18.8895556,6.44488889 C18.6217778,6.58977778 18.3768889,6.74888889 18.1544444,6.92266667 C17.9322222,7.096 17.7466667,7.30777778 17.5982222,7.55733333 C17.7213333,7.62244444 17.8786667,7.69111111 18.0702222,7.76355556 C18.262,7.83577778 18.4537778,7.89911111 18.6453333,7.95333333 L18.6455556,7.95377778 Z" id="Path"></path>
            <path d="M2.59888889,4.33511111 C2.59888889,4.55577778 2.63333333,4.77733333 2.702,4.99955556 C2.77044444,5.22222222 2.88533333,5.44444444 3.04644444,5.66688889 C3.20733333,5.88955556 3.418,6.11133333 3.67844444,6.33177778 C3.93888889,6.55244444 4.26066667,6.77488889 4.644,6.99911111 C4.644,7.198 4.60622222,7.38977778 4.53,7.57422222 C4.454,7.75866667 4.34111111,7.91955556 4.19088889,8.05711111 C4.04088889,8.19444444 3.85377778,8.30488889 3.62955556,8.38822222 C3.40511111,8.47111111 3.14288889,8.51266667 2.84288889,8.51266667 C2.61844444,8.51266667 2.39444444,8.46933333 2.17022222,8.38266667 C1.94577778,8.296 1.73155556,8.17311111 1.52733333,8.01377778 C1.32288889,7.85466667 1.13288889,7.664 0.957555556,7.44155556 C0.782,7.21933333 0.630222222,6.97311111 0.502,6.70377778 C0.373111111,6.43422222 0.272222222,6.14377778 0.198,5.83266667 C0.123777778,5.52155556 0.0868888889,5.2 0.0868888889,4.86711111 C0.0868888889,4.45155556 0.132888889,4.04444444 0.225111111,3.64644444 C0.317333333,3.24866667 0.454888889,2.87155556 0.637555556,2.51533333 C0.820222222,2.15911111 1.04711111,1.83177778 1.31844444,1.53311111 C1.58955556,1.23488889 1.90511111,0.976222222 2.26511111,0.757555556 C2.62511111,0.538666667 3.02733333,0.368666667 3.47222222,0.247555556 C3.91711111,0.126444444 4.40333333,0.0657777778 4.93155556,0.0657777778 C5.20266667,0.0657777778 5.45888889,0.0693333333 5.69933333,0.0768888889 C5.93977778,0.0835555556 6.19222222,0.100222222 6.45622222,0.125333333 C6.72022222,0.150666667 7.01044444,0.186888889 7.32688889,0.234222222 C7.64333333,0.280888889 8.01511111,0.344222222 8.44177778,0.423777778 C9.37466667,0.590444444 10.2066667,0.734 10.9373333,0.854888889 C11.668,0.976222222 12.3235556,1.08022222 12.904,1.16711111 C13.4844444,1.25377778 14.0026667,1.32444444 14.4582222,1.37866667 C14.9137778,1.43288889 15.336,1.47644444 15.7248889,1.50888889 C16.1137778,1.54155556 16.482,1.564 16.8293333,1.57666667 C17.1764444,1.58933333 17.5293333,1.59755556 17.8871111,1.60111111 C17.9271111,1.64111111 17.9631111,1.69444444 17.9955556,1.76111111 C18.0282222,1.82777778 18.0562222,1.90111111 18.08,1.98111111 C18.1033333,2.06044444 18.1213333,2.14111111 18.134,2.22244444 C18.1466667,2.30355556 18.1528889,2.37844444 18.1528889,2.44733333 C18.1528889,2.79844444 18.0742222,3.11622222 17.9168889,3.40222222 C17.7595556,3.68755556 17.5435556,3.93266667 17.2686667,4.13711111 C16.994,4.34155556 16.674,4.49933333 16.3086667,4.61177778 C15.9433333,4.72377778 15.5508889,4.78 15.1313333,4.78 C14.9431111,4.78 14.7324444,4.77266667 14.4993333,4.75822222 C14.266,4.74377778 14.0226667,4.72044444 13.7695556,4.68777778 C13.5162222,4.65511111 13.2577778,4.61355556 12.994,4.56288889 C12.7295556,4.51222222 12.4728889,4.45088889 12.2233333,4.37844444 C12.1402222,4.628 12.0651111,4.87311111 11.9982222,5.11355556 C11.9315556,5.35444444 11.8688889,5.604 11.8108889,5.86244444 C11.7531111,6.12111111 11.6962222,6.39511111 11.6397778,6.68466667 C11.5842222,6.97355556 11.5253333,7.294 11.4637778,7.64466667 C11.6446667,7.66644444 11.8126667,7.69 11.9682222,7.71533333 C12.1237778,7.74066667 12.2757778,7.75311111 12.4237778,7.75311111 C12.6953333,7.746 12.9422222,7.73311111 13.1646667,7.71533333 C13.3868889,7.69711111 13.5922222,7.67377778 13.7802222,7.64466667 C13.9684444,7.61577778 14.142,7.58244444 14.3011111,7.54466667 C14.4604444,7.50644444 14.6122222,7.46577778 14.7566667,7.42244444 C14.8077778,7.462 14.8566667,7.51444444 14.9033333,7.57955556 C14.9504444,7.64466667 14.9928889,7.71733333 15.0308889,7.79666667 C15.0686667,7.87622222 15.0986667,7.95844444 15.1204444,8.04333333 C15.1422222,8.12844444 15.1528889,8.21088889 15.1528889,8.29044444 C15.1528889,8.65577778 15.0875556,8.97488889 14.9573333,9.24822222 C14.8273333,9.52111111 14.6455556,9.74822222 14.4122222,9.92888889 C14.1788889,10.1095556 13.9022222,10.2444444 13.5822222,10.3328889 C13.2622222,10.4213333 12.912,10.4657778 12.5322222,10.4657778 C12.3804444,10.4657778 12.2175556,10.4546667 12.044,10.4331111 C11.8706667,10.4113333 11.7077778,10.3877778 11.5557778,10.3624444 C11.3784444,10.3335556 11.2013333,10.3008889 11.024,10.2646667 C11.0133333,10.3262222 10.9915556,10.4284444 10.9588889,10.5713333 C10.9264444,10.7142222 10.8884444,10.8757778 10.8451111,11.0568889 C10.8015556,11.2377778 10.7562222,11.4266667 10.7095556,11.6235556 C10.6624444,11.8208889 10.618,12.008 10.5762222,12.1853333 C10.5348889,12.3624444 10.4977778,12.5186667 10.4651111,12.6546667 C10.4326667,12.7902222 10.4111111,12.8835556 10.4002222,12.934 C10.2517778,13.5922222 10.0735556,14.2188889 9.86577778,14.814 C9.65777778,15.4088889 9.41822222,15.9595556 9.14688889,16.466 C8.87577778,16.9722222 8.57355556,17.4297778 8.24088889,17.8384444 C7.90822222,18.2473333 7.54311111,18.5944444 7.14488889,18.8802222 C6.74711111,19.166 6.31822222,19.3868889 5.85911111,19.542 C5.39977778,19.6975556 4.90577778,19.7753333 4.378,19.7753333 C3.82111111,19.7753333 3.33088889,19.7004444 2.90777778,19.5502222 C2.48466667,19.4002222 2.13,19.1875556 1.84444444,18.9124444 C1.55866667,18.6377778 1.34222222,18.3051111 1.196,17.9146667 C1.04933333,17.5235556 0.976444444,17.0862222 0.976444444,16.6013333 C0.976444444,16.3231111 1.01066667,16.0373333 1.07933333,15.7444444 C1.14822222,15.4515556 1.26911111,15.1415556 1.44266667,14.8142222 C1.616,14.4868889 1.85422222,14.1386667 2.156,13.7697778 C2.45822222,13.4008889 2.84333333,13.0008889 3.31155556,12.5706667 C3.78044444,12.1404444 4.34044444,11.6764444 4.99377778,11.1791111 C5.64644444,10.6817778 6.41044444,10.1402222 7.28577778,9.55422222 C7.09755556,9.39866667 6.95111111,9.21244444 6.84622222,8.99533333 C6.74133333,8.77822222 6.68888889,8.55755556 6.68888889,8.33311111 C6.68888889,8.14155556 6.73555556,7.95888889 6.82977778,7.78533333 C6.92377778,7.612 7.07577778,7.46888889 7.28533333,7.35644444 C7.38688889,7.29866667 7.50266667,7.25733333 7.63288889,7.232 C7.76311111,7.20666667 7.90777778,7.18866667 8.06688889,7.17777778 C8.14244444,6.85955556 8.22688889,6.56133333 8.31911111,6.28266667 C8.41133333,6.00422222 8.51533333,5.72755556 8.63111111,5.45266667 C8.74666667,5.17777778 8.876,4.89933333 9.01888889,4.61711111 C9.16155556,4.33488889 9.32555556,4.03311111 9.51,3.71111111 C8.92022222,3.52311111 8.37666667,3.36488889 7.87933333,3.23644444 C7.382,3.108 6.92155556,3.00488889 6.49866667,2.92711111 C6.07533333,2.84933333 5.68755556,2.79422222 5.33466667,2.76177778 C4.982,2.72911111 4.65555556,2.71288889 4.35533333,2.71288889 C3.75533333,2.71288889 3.312,2.85222222 3.02644444,3.13066667 C2.74044444,3.40911111 2.59755556,3.81066667 2.59755556,4.33511111 L2.59888889,4.33511111 Z M6.99888889,11.9088889 C6.35888889,12.5055556 5.83222222,13.03 5.42022222,13.4822222 C5.008,13.9342222 4.68155556,14.334 4.44111111,14.6811111 C4.20066667,15.0284444 4.03333333,15.3313333 3.93933333,15.59 C3.84511111,15.8486667 3.79822222,16.0811111 3.79822222,16.2871111 C3.79822222,16.5148889 3.81822222,16.7084444 3.85822222,16.8675556 C3.89777778,17.0266667 3.95377778,17.1551111 4.02622222,17.2528889 C4.09866667,17.3506667 4.18533333,17.4217778 4.28666667,17.4671111 C4.388,17.5124444 4.5,17.5348889 4.62311111,17.5348889 C4.82911111,17.5348889 5.03644444,17.42 5.24422222,17.1904444 C5.45222222,16.9606667 5.65755556,16.6135556 5.85977778,16.1486667 C6.06266667,15.6837778 6.25977778,15.0986667 6.45133333,14.3931111 C6.64288889,13.6882222 6.82555556,12.8597778 6.99911111,11.9086667 L6.99888889,11.9088889 Z" id="Shape"></path>
        </g>
    </g>
</svg>